<!-- SoundCloud SVG (SimpleIcons) -->
<svg role="img" viewBox="0 0 24 24" xmlns="http://www.w3.org/2000/svg"><title>SoundCloud</title><path d="M17.5 10.5c-.276 0-.5.224-.5.5v2c0 .276.224.5.5.5h2c.276 0 .5-.224.5-.5v-2c0-.276-.224-.5-.5-.5zm-2.5 1c-.276 0-.5.224-.5.5v1c0 .276.224.5.5.5h1c.276 0 .5-.224.5-.5v-1c0-.276-.224-.5-.5-.5zm-2.5.5c-.276 0-.5.224-.5.5v.5c0 .276.224.5.5.5h.5c.276 0 .5-.224.5-.5v-.5c0-.276-.224-.5-.5-.5zm-2.5.5c-.276 0-.5.224-.5.5v.5c0 .276.224.5.5.5h.5c.276 0 .5-.224.5-.5v-.5c0-.276-.224-.5-.5-.5zm-2.5.5c-.276 0-.5.224-.5.5v.5c0 .276.224.5.5.5h.5c.276 0 .5-.224.5-.5v-.5c0-.276-.224-.5-.5-.5zm-2.5.5c-.276 0-.5.224-.5.5v.5c0 .276.224.5.5.5h.5c.276 0 .5-.224.5-.5v-.5c0-.276-.224-.5-.5-.5z"/></svg>
