<!-- Spotify SVG (SimpleIcons) -->
<svg role="img" viewBox="0 0 24 24" xmlns="http://www.w3.org/2000/svg"><title>Spotify</title><path d="M12 0C5.371 0 0 5.371 0 12c0 6.627 5.371 12 12 12s12-5.373 12-12c0-6.629-5.371-12-12-12zm5.297 17.438c-.221.363-.691.477-1.055.256-2.891-1.77-6.543-2.168-10.823-1.18-.414.094-.832-.16-.926-.574-.094-.414.16-.832.574-.926 4.668-1.066 8.668-.617 11.832 1.262.363.221.477.691.256 1.062zm1.504-2.668c-.277.449-.855.594-1.305.316-3.309-2.043-8.355-2.637-12.262-1.434-.512.156-1.055-.125-1.211-.637-.156-.512.125-1.055.637-1.211 4.418-1.355 9.918-.707 13.668 1.637.449.277.594.855.316 1.329zm.137-2.793c-3.98-2.367-10.543-2.582-14.262-1.398-.617.191-1.281-.145-1.473-.762-.191-.617.145-1.281.762-1.473 4.168-1.293 11.418-1.043 15.918 1.582.566.336.748 1.07.412 1.637-.336.566-1.07.748-1.637.414z"/></svg>
